<svg xmlns="http://www.w3.org/2000/svg" width="256" height="256" viewBox="0 0 100 100"><rect width="100" height="100" rx="20" fill="#6e93e7"></rect><path fill="#fff" d="M9.62 74.21L9.62 74.21Q9.98 73.37 11.60 69.80Q13.22 66.23 15.83 60.50Q18.44 54.77 21.71 47.48Q24.98 40.19 28.64 32.03L28.64 32.03Q28.82 31.61 29.03 30.92Q29.24 30.23 29.24 29.57L29.24 29.57Q29.24 28.91 28.85 28.46Q28.46 28.01 27.20 28.01L27.20 28.01Q24.68 28.01 23.03 29.72Q21.38 31.43 20.57 33.95Q19.76 36.47 19.76 38.93L19.76 38.93Q19.76 39.53 19.79 39.95Q19.82 40.37 19.88 40.79L19.88 40.79Q18.74 40.79 18.05 39.98Q17.36 39.17 17.03 38Q16.70 36.83 16.70 35.87L16.70 35.87Q16.70 33.89 17.78 32.09Q18.86 30.29 20.57 28.85Q22.28 27.41 24.35 26.60Q26.42 25.79 28.40 25.79L28.40 25.79Q30.38 25.79 31.73 26.90Q33.08 28.01 33.77 30.89Q34.46 33.77 34.46 39.23L34.46 39.23Q34.46 42.95 34.19 47.15Q33.92 51.35 33.62 55.43Q33.32 59.51 33.20 62.87L33.20 62.87Q34.16 59.21 35.93 55.07Q37.70 50.93 39.83 46.82Q41.96 42.71 44.06 39.11Q46.16 35.51 47.84 32.87Q49.52 30.23 50.30 29.03L50.30 29.03Q51.14 27.83 51.74 27.20Q52.34 26.57 53.30 26.57L53.30 26.57Q54.14 26.57 55.22 26.99L55.22 26.99Q54.80 28.07 54.05 30.20Q53.30 32.33 52.52 35.39L52.52 35.39Q51.56 39.05 50.60 43.70Q49.64 48.35 48.83 53.15Q48.02 57.95 47.54 62.18Q47.06 66.41 47.06 69.29L47.06 69.29Q47.06 70.61 47.18 71.33Q47.30 72.05 47.51 72.62Q47.72 73.19 47.96 74.21L47.96 74.21Q45.92 74.21 44.84 73.55Q43.76 72.89 43.40 71.42Q43.04 69.95 43.04 67.49L43.04 67.49Q43.04 60.35 44.87 52.16Q46.70 43.97 49.04 35.15L49.04 35.15Q47.30 37.37 45.41 40.76Q43.52 44.15 41.63 48.08Q39.74 52.01 38.03 55.94Q36.32 59.87 35 63.23Q33.68 66.59 32.96 68.81L32.96 68.81Q32.60 68.93 32.48 68.99Q32.36 69.05 32.06 69.05L32.06 69.05Q30.44 69.05 29.93 67.13Q29.42 65.21 29.42 61.73L29.42 61.73Q29.42 59.27 29.57 55.88Q29.72 52.49 29.90 48.89Q30.08 45.29 30.23 41.96Q30.38 38.63 30.38 36.23L30.38 36.23Q30.38 35.03 30.35 34.25Q30.32 33.47 30.26 32.87L30.26 32.87Q25.46 44.03 22.22 51.92Q18.98 59.81 16.79 64.73Q14.60 69.65 12.92 71.93Q11.24 74.21 9.62 74.21ZM80.24 74.21L80.24 74.21Q78.08 74.21 75.47 73.31Q72.86 72.41 70.10 71.12Q67.34 69.83 64.64 68.63L64.64 68.63Q63.14 70.31 61.52 71.24Q59.90 72.17 57.98 72.17L57.98 72.17Q56.06 72.17 54.71 71.27Q53.36 70.37 52.67 69.14Q51.98 67.91 51.98 66.95L51.98 66.95Q51.98 65.87 52.97 65.09Q53.96 64.31 56.36 64.31L56.36 64.31Q57.92 64.31 59.81 64.67Q61.70 65.03 63.74 65.57L63.74 65.57Q65.18 63.05 66.41 59.69Q67.64 56.33 68.84 52.55Q70.04 48.77 71.24 44.99L71.24 44.99Q68.48 44.09 66.89 42.35Q65.30 40.61 65.30 38.57L65.30 38.57Q65.30 37.49 65.75 36.41Q66.20 35.33 67.04 34.58Q67.88 33.83 69.02 33.83L69.02 33.83Q68.60 34.43 68.42 35.57Q68.24 36.71 68.24 37.55L68.24 37.55Q68.24 39.83 69.20 41.36Q70.16 42.89 71.66 43.73L71.66 43.73Q72.86 40.13 74.15 36.92Q75.44 33.71 77 31.19Q78.56 28.67 80.42 27.23Q82.28 25.79 84.56 25.79L84.56 25.79Q85.76 25.79 87.11 26.33Q88.46 26.87 89.42 28.19Q90.38 29.51 90.38 31.91L90.38 31.91Q90.38 33.95 89.54 36.32Q88.70 38.69 86.96 40.82Q85.22 42.95 82.52 44.30Q79.82 45.65 76.16 45.71L76.16 45.71Q76.10 45.71 75.89 45.71Q75.68 45.71 75.02 45.71L75.02 45.71Q73.82 49.37 72.47 53.15Q71.12 56.93 69.62 60.32Q68.12 63.71 66.38 66.35L66.38 66.35Q69.14 67.19 71.96 68.06Q74.78 68.93 77.42 69.50Q80.06 70.07 82.28 70.07L82.28 70.07Q83.54 70.07 84.56 69.83Q85.58 69.59 86.54 69.11L86.54 69.11Q85.58 71.87 83.99 73.04Q82.40 74.21 80.24 74.21ZM57.74 70.43L57.74 70.43Q59.06 70.43 60.23 69.71Q61.40 68.99 62.36 67.67L62.36 67.67Q60.50 66.89 58.73 66.38Q56.96 65.87 55.52 65.87L55.52 65.87Q54.38 65.87 53.96 66.17Q53.54 66.47 53.54 67.01L53.54 67.01Q53.54 68.03 54.71 69.23Q55.88 70.43 57.74 70.43ZM75.38 44.57L75.38 44.57Q78.08 44.57 80.27 43.04Q82.46 41.51 83.99 39.20Q85.52 36.89 86.33 34.49Q87.14 32.09 87.14 30.29L87.14 30.29Q87.14 28.55 86.48 27.92Q85.82 27.29 84.98 27.29L84.98 27.29Q83.12 27.29 81.50 29.69Q79.88 32.09 78.41 36.02Q76.94 39.95 75.38 44.57Z"></path></svg>